<svg width="253" height="229" viewBox="0 0 253 229" fill="none" xmlns="http://www.w3.org/2000/svg">
<g filter="url(#filter0_d_22_1166)">
<rect x="38" y="55" width="170" height="128" rx="6" fill="white"/>
</g>
<path d="M59.44 89.822H62.428V82.748H59.422V81.146C60.094 81.098 60.856 80.93 61.708 80.642C62.56 80.342 63.364 79.982 64.12 79.562H65.074V89.822H68.008V92H59.44V89.822ZM70.0655 91.46C70.0655 90.668 70.1975 90.044 70.4615 89.588C70.7375 89.12 71.1215 88.694 71.6135 88.31L75.1235 85.556C75.5795 85.208 75.8915 84.854 76.0595 84.494C76.2395 84.122 76.3295 83.738 76.3295 83.342C76.3295 82.898 76.1855 82.514 75.8975 82.19C75.6095 81.854 75.1775 81.686 74.6015 81.686C74.1335 81.686 73.7435 81.794 73.4315 82.01C73.1315 82.214 72.9095 82.46 72.7655 82.748C72.6215 83.036 72.5495 83.288 72.5495 83.504C72.5495 83.72 72.5555 83.882 72.5675 83.99H70.1015C70.0895 83.894 70.0835 83.78 70.0835 83.648C70.0835 83 70.2275 82.364 70.5155 81.74C70.8035 81.104 71.2955 80.57 71.9915 80.138C72.6875 79.694 73.5995 79.472 74.7275 79.472H74.9975C75.8615 79.472 76.5995 79.652 77.2115 80.012C77.8355 80.372 78.3035 80.846 78.6155 81.434C78.9275 82.01 79.0835 82.628 79.0835 83.288C79.0835 83.996 78.9455 84.626 78.6695 85.178C78.4055 85.718 77.9435 86.264 77.2835 86.816C76.5275 87.452 75.6155 88.172 74.5475 88.976C74.4275 89.072 74.2775 89.204 74.0975 89.372C73.9175 89.54 73.8275 89.648 73.8275 89.696H79.1195V92H70.0655V91.46ZM81.771 94.592C81.891 94.016 82.083 93.152 82.347 92H81.213V89.354H83.841V91.568L83.085 94.592H81.771ZM90.5612 81.632C90.0332 81.632 89.5772 81.812 89.1932 82.172C88.8092 82.532 88.6172 82.976 88.6172 83.504V85.25C88.9412 84.902 89.3252 84.638 89.7692 84.458C90.2132 84.278 90.6692 84.188 91.1372 84.188C91.8812 84.188 92.5532 84.344 93.1532 84.656C93.7652 84.956 94.2452 85.394 94.5932 85.97C94.9532 86.534 95.1332 87.194 95.1332 87.95C95.1332 88.802 94.9352 89.546 94.5392 90.182C94.1552 90.818 93.6212 91.31 92.9372 91.658C92.2652 92.006 91.5152 92.18 90.6872 92.18H90.4352C89.6192 92.18 88.8692 92 88.1852 91.64C87.5012 91.268 86.9612 90.752 86.5652 90.092C86.1692 89.432 85.9712 88.682 85.9712 87.842V83.81C85.9712 83.006 86.1692 82.274 86.5652 81.614C86.9612 80.954 87.4952 80.432 88.1672 80.048C88.8392 79.664 89.5772 79.472 90.3812 79.472H90.6332C91.4252 79.472 92.1452 79.634 92.7932 79.958C93.4412 80.282 93.9512 80.756 94.3232 81.38C94.6952 81.992 94.8812 82.718 94.8812 83.558H92.3972C92.3972 83.03 92.2232 82.58 91.8752 82.208C91.5392 81.824 91.1012 81.632 90.5612 81.632ZM92.5232 87.896C92.5232 87.356 92.3312 86.912 91.9472 86.564C91.5752 86.204 91.1072 86.024 90.5432 86.024C90.0032 86.024 89.5472 86.204 89.1752 86.564C88.8032 86.912 88.6172 87.356 88.6172 87.896V88.256C88.6172 88.796 88.8032 89.246 89.1752 89.606C89.5592 89.954 90.0332 90.128 90.5972 90.128C91.1372 90.128 91.5932 89.954 91.9652 89.606C92.3372 89.246 92.5232 88.796 92.5232 88.256V87.896ZM97.1006 91.46C97.1006 90.668 97.2326 90.044 97.4966 89.588C97.7726 89.12 98.1566 88.694 98.6486 88.31L102.159 85.556C102.615 85.208 102.927 84.854 103.095 84.494C103.275 84.122 103.365 83.738 103.365 83.342C103.365 82.898 103.221 82.514 102.933 82.19C102.645 81.854 102.213 81.686 101.637 81.686C101.169 81.686 100.779 81.794 100.467 82.01C100.167 82.214 99.9446 82.46 99.8006 82.748C99.6566 83.036 99.5846 83.288 99.5846 83.504C99.5846 83.72 99.5906 83.882 99.6026 83.99H97.1366C97.1246 83.894 97.1186 83.78 97.1186 83.648C97.1186 83 97.2626 82.364 97.5506 81.74C97.8386 81.104 98.3306 80.57 99.0266 80.138C99.7226 79.694 100.635 79.472 101.763 79.472H102.033C102.897 79.472 103.635 79.652 104.247 80.012C104.871 80.372 105.339 80.846 105.651 81.434C105.963 82.01 106.119 82.628 106.119 83.288C106.119 83.996 105.981 84.626 105.705 85.178C105.441 85.718 104.979 86.264 104.319 86.816C103.563 87.452 102.651 88.172 101.583 88.976C101.463 89.072 101.313 89.204 101.133 89.372C100.953 89.54 100.863 89.648 100.863 89.696H106.155V92H97.1006V91.46Z" fill="#060C3C"/>
<rect x="58" y="143" width="130" height="20" rx="6" fill="#55BBEC"/>
<rect x="58" y="110" width="65" height="6" rx="3" fill="#B4B6C4"/>
<rect x="58" y="124" width="65" height="6" rx="3" fill="#B4B6C4"/>
<g filter="url(#filter1_d_22_1166)">
<rect x="109" y="14" width="50" height="50" rx="6" fill="white"/>
</g>
<path d="M143.037 31.0065C143.019 30.8752 142.905 30.8023 142.81 30.7944C142.716 30.7865 140.87 30.7583 140.87 30.7583C140.87 30.7583 139.327 29.2551 139.174 29.1022C139.022 28.9492 138.724 28.9954 138.608 29.03C138.607 29.0308 138.319 29.1202 137.833 29.271C137.752 29.007 137.632 28.6824 137.462 28.3563C136.913 27.3046 136.108 26.7485 135.135 26.747C135.134 26.747 135.133 26.747 135.132 26.747C135.064 26.747 134.997 26.7535 134.93 26.7593C134.901 26.7247 134.872 26.6908 134.842 26.6576C134.418 26.2032 133.875 25.9817 133.224 26.0012C131.969 26.0372 130.718 26.9468 129.704 28.5626C128.99 29.6994 128.447 31.1277 128.293 32.2335C126.851 32.6814 125.843 32.9944 125.821 33.0017C125.093 33.231 125.07 33.2534 124.975 33.9416C124.904 34.4616 123 49.2316 123 49.2316L138.96 52L145.878 50.2753C145.878 50.2753 143.055 31.1378 143.037 31.0065ZM137.034 29.5191C136.667 29.6331 136.249 29.7629 135.796 29.9036C135.786 29.2659 135.711 28.3787 135.414 27.6119C136.367 27.793 136.836 28.8742 137.034 29.5191ZM134.961 30.1632C134.124 30.4229 133.211 30.7064 132.296 30.9906C132.553 30.0017 133.042 29.0171 133.642 28.3715C133.865 28.1313 134.177 27.8636 134.546 27.7107C134.894 28.4378 134.969 29.4672 134.961 30.1632ZM133.25 26.8394C133.544 26.8329 133.793 26.8978 134.005 27.0377C133.665 27.2145 133.337 27.4684 133.03 27.7995C132.232 28.6578 131.621 29.9901 131.377 31.2755C130.617 31.5114 129.873 31.743 129.188 31.955C129.62 29.9317 131.311 26.8956 133.25 26.8394Z" fill="#95BF47"/>
<path d="M142.811 30.7951C142.717 30.7872 140.871 30.759 140.871 30.759C140.871 30.759 139.328 29.2558 139.175 29.1029C139.118 29.0459 139.041 29.0163 138.961 29.004L138.962 51.9993L145.878 50.2753C145.878 50.2753 143.056 31.1385 143.038 31.0072C143.02 30.8759 142.905 30.803 142.811 30.7951Z" fill="#5E8E3E"/>
<path d="M135.127 34.3621L134.323 37.3765C134.323 37.3765 133.427 36.9675 132.365 37.0346C130.807 37.1334 130.791 38.1187 130.806 38.3661C130.891 39.7143 134.428 40.0086 134.626 43.1666C134.782 45.6508 133.312 47.3503 131.194 47.4844C128.652 47.6453 127.252 46.1413 127.252 46.1413L127.791 43.8432C127.791 43.8432 129.2 44.9093 130.327 44.8379C131.064 44.791 131.327 44.1901 131.301 43.7653C131.19 42.0067 128.31 42.1105 128.128 39.2209C127.975 36.7893 129.567 34.3253 133.081 34.1031C134.434 34.0158 135.127 34.3621 135.127 34.3621Z" fill="white"/>
<g filter="url(#filter2_d_22_1166)">
<rect x="123" y="74" width="36" height="36" rx="6" fill="white"/>
</g>
<g clip-path="url(#clip0_22_1166)">
<rect width="14" height="14" transform="translate(134 85)" fill="white"/>
<path d="M134 85H140.631V91.6527H134V85Z" fill="#F25022"/>
<path d="M141.323 85H147.954V91.6527H141.323V85Z" fill="#7FBA00"/>
<path d="M134 92.3473H140.631V99H134V92.3473Z" fill="#00A4EF"/>
<path d="M141.323 92.3473H147.954V99H141.323V92.3473Z" fill="#FFB900"/>
</g>
<g filter="url(#filter3_d_22_1166)">
<rect x="169" y="30" width="35" height="35" rx="6" fill="white"/>
</g>
<g clip-path="url(#clip1_22_1166)">
<path d="M184.632 48.4883C183.588 48.4883 182.741 49.335 182.741 50.379V55.1085C182.741 56.1525 183.588 56.9993 184.632 56.9993C185.676 56.9993 186.523 56.1525 186.523 55.1085V50.379C186.522 49.335 185.675 48.4883 184.632 48.4883Z" fill="#E91E63"/>
<path d="M178.014 50.3789C178.014 51.4237 178.862 52.2712 179.907 52.2712C180.951 52.2712 181.799 51.4237 181.799 50.3789V48.4867H179.908C179.907 48.4867 179.907 48.4867 179.907 48.4867C178.862 48.4867 178.014 49.3342 178.014 50.3789Z" fill="#E91E63"/>
<path d="M184.635 38.9993C184.634 38.9993 184.633 38.9993 184.632 38.9993C183.588 38.9993 182.74 39.8468 182.74 40.8915C182.74 41.9363 183.588 42.7838 184.632 42.7838H186.523V40.8915C186.523 40.8908 186.523 40.8893 186.523 40.8878C186.522 39.8445 185.677 38.9993 184.635 38.9993Z" fill="#36C5F0"/>
<path d="M179.894 47.5274H184.632C185.677 47.5274 186.525 46.6799 186.525 45.6352C186.525 44.5904 185.677 43.7429 184.632 43.7429H179.894C178.849 43.7429 178.002 44.5904 178.002 45.6352C178.002 46.6799 178.849 47.5274 179.894 47.5274Z" fill="#36C5F0"/>
<path d="M194.093 43.7423C193.05 43.7423 192.204 44.5876 192.204 45.6308V45.6346V47.5268H194.095C195.14 47.5268 195.987 46.6793 195.987 45.6346C195.987 44.5898 195.14 43.7423 194.095 43.7423C194.094 43.7423 194.094 43.7423 194.093 43.7423Z" fill="#4CAF50"/>
<path d="M187.481 40.8915V45.6352C187.481 46.6792 188.327 47.526 189.371 47.526C190.415 47.526 191.262 46.6792 191.262 45.6352V40.8915C191.262 39.8475 190.415 39.0007 189.371 39.0007C188.327 39.0007 187.481 39.8475 187.481 40.8915Z" fill="#4CAF50"/>
<path d="M191.261 55.1069C191.261 54.0629 190.415 53.2162 189.371 53.2162H187.48V55.1084C187.481 56.1517 188.327 56.9977 189.371 56.9977C190.415 56.9977 191.261 56.1509 191.261 55.1069Z" fill="#FF9800"/>
<path d="M194.109 48.4867H189.371C188.326 48.4867 187.478 49.3342 187.478 50.3789C187.478 51.4237 188.326 52.2712 189.371 52.2712H194.109C195.154 52.2712 196.002 51.4237 196.002 50.3789C196.002 49.3342 195.154 48.4867 194.109 48.4867Z" fill="#FF9800"/>
</g>
<g filter="url(#filter4_d_22_1166)">
<rect x="171" y="77" width="50" height="50" rx="6" fill="white"/>
</g>
<path d="M197.508 90.0159L197.499 95.3197L197.49 100.624L197.053 99.3923L197.053 99.39L196.489 111.198C197.043 112.763 197.34 113.599 197.343 113.603C197.348 113.607 197.664 113.626 198.046 113.645C199.202 113.702 200.636 113.825 201.723 113.961C201.975 113.992 202.192 114.008 202.205 113.996C202.218 113.984 202.225 108.584 202.22 101.995L202.212 90.0159H197.508Z" fill="#B1060F"/>
<path d="M189 90V101.992C189 108.587 189.006 113.99 189.014 113.998C189.022 114.006 189.431 113.967 189.922 113.912C190.413 113.857 191.092 113.789 191.431 113.76C191.95 113.716 193.501 113.616 193.68 113.615C193.733 113.615 193.736 113.346 193.743 108.536L193.751 103.457L194.127 104.519L194.259 104.894L194.823 93.089L194.629 92.5415C194.34 91.7232 194.05 90.905 193.761 90.0868L193.73 90H189Z" fill="#B1060F"/>
<path d="M189 90V96.7313L193.742 109.31C193.742 109.021 193.743 108.866 193.743 108.536L193.751 103.457L194.127 104.519C196.215 110.428 197.337 113.596 197.343 113.603C197.348 113.607 197.664 113.626 198.045 113.645C199.202 113.702 200.636 113.825 201.723 113.961C201.975 113.992 202.192 114.008 202.205 113.996C202.214 113.988 202.219 111.34 202.221 107.605L197.501 94.0357L197.499 95.3197L197.49 100.624L197.053 99.3924C196.627 98.1894 196.342 97.3848 194.629 92.5415C194.34 91.7232 194.05 90.905 193.761 90.0868L193.73 90H189Z" fill="url(#paint0_radial_22_1166)"/>
<path d="M189 90L193.752 103.463V103.457L194.127 104.519C196.215 110.428 197.337 113.596 197.344 113.603C197.348 113.607 197.664 113.626 198.046 113.645C199.203 113.702 200.636 113.825 201.723 113.961C201.974 113.992 202.189 114.008 202.205 113.996L197.49 100.621V100.624L197.054 99.3924C196.627 98.1894 196.342 97.3848 194.63 92.5415C194.169 91.2391 193.778 90.1347 193.761 90.0868L193.73 90H189Z" fill="#E50914"/>
<path d="M197.508 90.0159L197.499 95.3197L197.49 100.624L197.053 99.3923L197.053 99.39L196.489 111.198C197.043 112.763 197.34 113.599 197.343 113.603C197.348 113.607 197.664 113.626 198.046 113.645C199.202 113.702 200.636 113.825 201.723 113.961C201.975 113.992 202.192 114.008 202.205 113.996C202.218 113.984 202.225 108.584 202.22 101.995L202.212 90.0159H197.508Z" fill="#B1060F"/>
<path d="M189 90V101.992C189 108.587 189.006 113.99 189.014 113.998C189.022 114.006 189.431 113.967 189.922 113.912C190.413 113.857 191.092 113.789 191.431 113.76C191.95 113.716 193.501 113.616 193.68 113.615C193.733 113.615 193.736 113.346 193.743 108.536L193.751 103.457L194.127 104.519L194.259 104.894L194.823 93.089L194.629 92.5415C194.34 91.7232 194.05 90.905 193.761 90.0868L193.73 90H189Z" fill="#B1060F"/>
<path d="M189 90V96.7313L193.742 109.31C193.742 109.021 193.743 108.866 193.743 108.536L193.751 103.457L194.127 104.519C196.215 110.428 197.337 113.596 197.343 113.603C197.348 113.607 197.664 113.626 198.045 113.645C199.202 113.702 200.636 113.825 201.723 113.961C201.975 113.992 202.192 114.008 202.205 113.996C202.214 113.988 202.219 111.34 202.221 107.605L197.501 94.0357L197.499 95.3197L197.49 100.624L197.053 99.3924C196.627 98.1894 196.342 97.3848 194.629 92.5415C194.34 91.7232 194.05 90.905 193.761 90.0868L193.73 90H189Z" fill="url(#paint1_radial_22_1166)"/>
<path d="M189 90L193.752 103.463V103.457L194.127 104.519C196.215 110.428 197.337 113.596 197.344 113.603C197.348 113.607 197.664 113.626 198.046 113.645C199.203 113.702 200.636 113.825 201.723 113.961C201.974 113.992 202.189 114.008 202.205 113.996L197.49 100.621V100.624L197.054 99.3924C196.627 98.1894 196.342 97.3848 194.63 92.5415C194.169 91.2391 193.778 90.1347 193.761 90.0868L193.73 90H189Z" fill="#E50914"/>
<defs>
<filter id="filter0_d_22_1166" x="0" y="25" width="246" height="204" filterUnits="userSpaceOnUse" color-interpolation-filters="sRGB">
<feFlood flood-opacity="0" result="BackgroundImageFix"/>
<feColorMatrix in="SourceAlpha" type="matrix" values="0 0 0 0 0 0 0 0 0 0 0 0 0 0 0 0 0 0 127 0" result="hardAlpha"/>
<feMorphology radius="2" operator="erode" in="SourceAlpha" result="effect1_dropShadow_22_1166"/>
<feOffset dy="8"/>
<feGaussianBlur stdDeviation="20"/>
<feColorMatrix type="matrix" values="0 0 0 0 0.0235294 0 0 0 0 0.0470588 0 0 0 0 0.231373 0 0 0 0.08 0"/>
<feBlend mode="normal" in2="BackgroundImageFix" result="effect1_dropShadow_22_1166"/>
<feBlend mode="normal" in="SourceGraphic" in2="effect1_dropShadow_22_1166" result="shape"/>
</filter>
<filter id="filter1_d_22_1166" x="89" y="0" width="90" height="90" filterUnits="userSpaceOnUse" color-interpolation-filters="sRGB">
<feFlood flood-opacity="0" result="BackgroundImageFix"/>
<feColorMatrix in="SourceAlpha" type="matrix" values="0 0 0 0 0 0 0 0 0 0 0 0 0 0 0 0 0 0 127 0" result="hardAlpha"/>
<feOffset dy="6"/>
<feGaussianBlur stdDeviation="10"/>
<feColorMatrix type="matrix" values="0 0 0 0 0.11 0 0 0 0 0.14137 0 0 0 0 0.4125 0 0 0 0.05 0"/>
<feBlend mode="normal" in2="BackgroundImageFix" result="effect1_dropShadow_22_1166"/>
<feBlend mode="normal" in="SourceGraphic" in2="effect1_dropShadow_22_1166" result="shape"/>
</filter>
<filter id="filter2_d_22_1166" x="103" y="60" width="76" height="76" filterUnits="userSpaceOnUse" color-interpolation-filters="sRGB">
<feFlood flood-opacity="0" result="BackgroundImageFix"/>
<feColorMatrix in="SourceAlpha" type="matrix" values="0 0 0 0 0 0 0 0 0 0 0 0 0 0 0 0 0 0 127 0" result="hardAlpha"/>
<feOffset dy="6"/>
<feGaussianBlur stdDeviation="10"/>
<feColorMatrix type="matrix" values="0 0 0 0 0.11 0 0 0 0 0.14137 0 0 0 0 0.4125 0 0 0 0.05 0"/>
<feBlend mode="normal" in2="BackgroundImageFix" result="effect1_dropShadow_22_1166"/>
<feBlend mode="normal" in="SourceGraphic" in2="effect1_dropShadow_22_1166" result="shape"/>
</filter>
<filter id="filter3_d_22_1166" x="149" y="16" width="75" height="75" filterUnits="userSpaceOnUse" color-interpolation-filters="sRGB">
<feFlood flood-opacity="0" result="BackgroundImageFix"/>
<feColorMatrix in="SourceAlpha" type="matrix" values="0 0 0 0 0 0 0 0 0 0 0 0 0 0 0 0 0 0 127 0" result="hardAlpha"/>
<feOffset dy="6"/>
<feGaussianBlur stdDeviation="10"/>
<feColorMatrix type="matrix" values="0 0 0 0 0.11 0 0 0 0 0.14137 0 0 0 0 0.4125 0 0 0 0.05 0"/>
<feBlend mode="normal" in2="BackgroundImageFix" result="effect1_dropShadow_22_1166"/>
<feBlend mode="normal" in="SourceGraphic" in2="effect1_dropShadow_22_1166" result="shape"/>
</filter>
<filter id="filter4_d_22_1166" x="151" y="63" width="90" height="90" filterUnits="userSpaceOnUse" color-interpolation-filters="sRGB">
<feFlood flood-opacity="0" result="BackgroundImageFix"/>
<feColorMatrix in="SourceAlpha" type="matrix" values="0 0 0 0 0 0 0 0 0 0 0 0 0 0 0 0 0 0 127 0" result="hardAlpha"/>
<feOffset dy="6"/>
<feGaussianBlur stdDeviation="10"/>
<feColorMatrix type="matrix" values="0 0 0 0 0.11 0 0 0 0 0.14137 0 0 0 0 0.4125 0 0 0 0.05 0"/>
<feBlend mode="normal" in2="BackgroundImageFix" result="effect1_dropShadow_22_1166"/>
<feBlend mode="normal" in="SourceGraphic" in2="effect1_dropShadow_22_1166" result="shape"/>
</filter>
<radialGradient id="paint0_radial_22_1166" cx="0" cy="0" r="1" gradientUnits="userSpaceOnUse" gradientTransform="translate(195.391 94.0086) scale(9.31259)">
<stop/>
<stop offset="1" stop-opacity="0"/>
</radialGradient>
<radialGradient id="paint1_radial_22_1166" cx="0" cy="0" r="1" gradientUnits="userSpaceOnUse" gradientTransform="translate(195.391 94.0086) scale(9.31259)">
<stop/>
<stop offset="1" stop-opacity="0"/>
</radialGradient>
<clipPath id="clip0_22_1166">
<rect width="14" height="14" fill="white" transform="translate(134 85)"/>
</clipPath>
<clipPath id="clip1_22_1166">
<rect width="18" height="18" fill="white" transform="translate(178 39)"/>
</clipPath>
</defs>
</svg>
